<?xml version="1.0" encoding="UTF-8"?>
<svg id="Capa_1" data-name="Capa 1" xmlns="http://www.w3.org/2000/svg" viewBox="0 0 800 800">
  <defs>
    <style>
      .cls-1 {
        fill: #d447ff;
      }

      .cls-2 {
        fill: none;
        stroke: #e6332a;
        stroke-miterlimit: 10;
        stroke-width: 2px;
      }

      .cls-3 {
        fill: #c3b3c4;
      }

      .cls-4 {
        fill: #2e1a4a;
      }

      .cls-5 {
        fill: #f3f3f3;
      }

      .cls-6 {
        fill: #150a30;
      }
    </style>
  </defs>
  <polygon class="cls-4" points="686.86 237.87 679.21 233.46 407.61 76.68 400.01 72.27 392.33 76.68 120.8 233.46 113.16 237.87 113.16 569.09 120.81 573.5 392.34 730.03 400.01 734.43 407.6 730.03 679.13 573.5 686.86 569.04 686.78 560.26 686.86 246.7 686.86 237.87"/>
  <polygon class="cls-4" points="264.27 325.05 331.9 207.89 264.4 168.21 399.96 89.91 400.01 403.36 264.27 325.05"/>
  <polygon class="cls-5" points="671.56 246.7 671.55 246.71 671.55 324.95 535.69 403.33 400.02 481.6 400.01 481.6 400.01 403.36 535.78 325.03 603.61 285.89 468.05 207.79 468.04 207.78 399.96 89.91 671.56 246.7"/>
  <polygon class="cls-1" points="535.78 325.03 400.01 403.36 399.96 89.91 468.04 207.78 468.05 207.79 535.78 325.03"/>
  <polygon class="cls-3" points="603.61 285.89 535.78 325.03 468.05 207.79 603.61 285.89"/>
  <line class="cls-2" x1="128.45" y1="246.69" x2="128.44" y2="246.69"/>
  <polygon class="cls-3" points="400.01 403.36 400.01 481.6 400 481.6 264.33 403.33 128.44 324.94 128.44 246.7 128.45 246.69 196.35 285.87 264.27 325.05 400.01 403.36"/>
  <line class="cls-2" x1="128.44" y1="246.7" x2="128.44" y2="246.69"/>
  <polygon class="cls-5" points="331.9 207.89 264.27 325.05 196.35 285.87 298.16 227.21 264.4 168.21 331.9 207.89"/>
  <polygon class="cls-6" points="298.16 227.21 264.27 325.05 128.45 246.69 264.4 168.21 298.16 227.21"/>
  <polygon class="cls-4" points="400.01 716.76 400.01 716.79 400 716.77 400.01 716.76"/>
  <polygon class="cls-3" points="400.01 526.01 400.01 574.56 370.05 560.58 348.11 627.04 323.88 585.15 400 526.01 400.01 526.01"/>
  <polygon class="cls-6" points="400.01 716.79 399.99 716.78 259.05 635.52 329.45 635.52 399.99 716.77 400 716.77 400.01 716.79"/>
  <polygon class="cls-3" points="400 481.6 363.3 517.45 294.37 534.05 264.34 403.36 306.26 446.33 399.88 481.56 400 481.6"/>
  <polygon class="cls-4" points="400.01 526.01 400 526.01 363.3 517.45 400 481.6 400.01 526.01"/>
  <polygon class="cls-6" points="259.04 635.52 128.44 560.26 162.11 560.26 259.04 635.52"/>
  <polygon class="cls-5" points="476.13 585.15 451.9 627.05 429.97 560.59 400.01 574.56 400.01 526.02 476.13 585.15"/>
  <polygon class="cls-6" points="540.97 635.52 400.01 716.79 470.57 635.52 540.97 635.52"/>
  <polygon class="cls-1" points="549.35 544.57 470.57 635.52 400.01 716.79 400.01 574.56 429.97 560.59 451.9 627.05 476.13 585.15 400.01 526.02 400.01 526.01 436.72 517.45 505.65 534.05 549.35 544.57"/>
  <polygon class="cls-6" points="671.56 560.26 540.97 635.52 637.9 560.26 671.56 560.26"/>
  <line class="cls-2" x1="348.11" y1="627.04" x2="347.89" y2="627.71"/>
  <path class="cls-6" d="m259.4,485.34l34.97,48.71-30.03-130.69-.02-.03-135.89-78.39v235.32l130.96-74.92Z"/>
  <polygon class="cls-5" points="259.4 485.34 162.11 560.26 128.44 560.26 259.4 485.34"/>
  <polygon class="cls-3" points="329.45 635.52 259.04 635.52 162.11 560.26 259.4 485.34 294.37 534.05 250.66 544.57 301.13 602.83 329.45 635.52"/>
  <polygon class="cls-5" points="535.68 403.36 505.65 534.05 436.72 517.45 400.01 526.01 400 481.6 400.02 481.6 493.76 446.33 535.68 403.36"/>
  <path class="cls-6" d="m671.56,560.26l-.02-235.3-135.85,78.38-.02.03-30.03,130.69,34.97-48.71,130.95,74.92Z"/>
  <polygon class="cls-5" points="671.56 560.26 637.9 560.26 540.62 485.34 671.56 560.26"/>
  <polygon class="cls-3" points="637.9 560.26 540.97 635.52 470.57 635.52 549.35 544.57 505.65 534.05 540.62 485.34 637.9 560.26"/>
  <path class="cls-4" d="m686.85,237.87l-7.65-4.41L407.6,76.68l-7.6-4.41-7.68,4.41L120.79,233.46l-7.64,4.41v331.22l7.65,4.41,271.53,156.53,7.67,4.4,7.59-4.4,271.53-156.53,7.73-4.46-.08-8.78.08-313.56v-8.83Zm-15.29,322.39l-130.59,75.26-10.6,6.11-130.31,75.1-.03.02h-.02s-.01.02-.01.02h-.01s-.03.02-.03.02l-234.31-135.08-37.19-21.45h-.02V246.7h.01s29.15-16.84,29.15-16.84l189.16-109.22,53.2-30.72h0s271.59,156.78,271.59,156.78v313.56Z"/>
  <polygon class="cls-4" points="400.01 574.56 400.01 716.76 400 716.77 399.99 716.77 329.45 635.52 301.13 602.83 250.66 544.57 294.37 534.05 363.3 517.45 400 526.01 323.88 585.15 348.11 627.04 370.05 560.58 400.01 574.56"/>
  <polygon class="cls-3" points="331.9 207.89 298.16 227.21 264.27 325.05 309.41 246.86 331.9 207.89"/>
  <polygon class="cls-4" points="298.16 227.21 196.35 285.87 264.27 325.05 298.16 227.21"/>
  <polygon class="cls-6" points="264.36 403.34 304.69 458.06 400.02 481.59 264.36 403.34"/>
  <polygon class="cls-4" points="535.67 403.34 495.21 458.06 400.02 481.59 535.67 403.34"/>
</svg>